<svg viewBox="800 600 300 300" xmlns="http://www.w3.org/2000/svg"><path d="M 887.643 864.045 L 885.303 864.045 C 881.42 864.045 878.443 863.154 876.381 861.369 C 874.295 859.607 872.928 858.209 872.279 857.178 C 871.631 856.17 871.307 854.9 871.307 853.377 C 871.307 852.369 872.217 847.686 874.041 839.334 L 877.533 826.768 C 880.123 816.397 882.451 807.783 884.514 800.932 C 885.568 794.596 887.58 787.885 890.557 780.799 C 893.533 773.689 895.283 769.369 895.811 767.846 C 897.873 760.498 901.881 749.096 907.83 733.631 L 919.486 702.869 C 928.557 678.791 933.998 664.088 935.822 658.764 L 942.049 642.045 C 942.049 637.986 944.123 635.955 948.272 635.955 C 951.897 635.955 954.932 637.916 957.377 641.834 C 959.85 645.775 961.084 650.279 961.084 655.35 C 961.084 659.15 960.303 662.822 958.744 666.365 C 955.119 673.971 951.178 683.533 946.904 695.053 C 942.635 706.6 939.854 714.143 938.557 717.686 C 929.732 742.022 923.373 758.236 919.486 766.33 C 919.486 767.342 919.104 769.111 918.338 771.647 C 917.568 774.182 916.654 776.467 915.6 778.51 L 911.354 786.854 C 911.354 787.627 909.928 792.951 907.072 802.834 C 903.451 813.721 901.244 821.697 900.451 826.768 C 901.748 824.49 904.471 821.006 908.619 816.314 C 912.768 811.643 916.654 807.783 920.279 804.732 C 934.529 792.811 943.334 785.717 946.689 783.439 C 949.811 781.678 952.4 780.033 954.463 778.51 C 956.549 776.986 957.979 775.967 958.744 775.447 C 958.744 774.182 960.174 773.549 963.025 773.549 C 964.061 773.549 964.647 773.432 964.791 773.193 C 964.908 772.939 964.971 772.303 964.971 771.295 C 964.971 769.51 967.943 767.928 973.893 766.541 C 979.865 765.135 985.182 764.432 989.834 764.432 C 992.951 764.432 995.412 765.064 997.209 766.33 C 999.033 767.6 1001.373 770.389 1004.225 774.709 C 1008.615 780.787 1010.811 787.369 1010.811 794.455 C 1010.811 798.514 1010.045 802.701 1008.506 807.022 C 1008.506 809.037 1008.186 812.135 1007.537 816.314 C 1006.889 820.514 1006.564 824.127 1006.564 827.154 L 1004.225 839.334 L 1010.451 839.334 C 1012.248 839.334 1013.986 839.58 1015.67 840.072 C 1017.369 840.592 1018.475 840.979 1018.979 841.232 C 1021.307 844.025 1023.381 845.424 1025.205 845.424 C 1027.533 845.424 1028.693 846.303 1028.693 848.064 C 1028.693 849.072 1028.178 850.342 1027.147 851.865 C 1026.115 853.389 1024.689 854.654 1022.865 855.666 C 1016.127 859.725 1010.424 861.756 1005.772 861.756 C 1001.357 861.756 996.826 859.725 992.17 855.666 C 986.463 850.104 983.607 843.393 983.607 835.533 C 983.607 831.475 984.389 826.65 985.947 821.064 L 987.135 808.92 C 987.639 802.842 987.889 799.041 987.889 797.518 C 987.889 791.674 986.463 788.752 983.607 788.752 C 979.986 788.752 973.064 791.861 962.846 798.08 C 952.604 804.299 942.037 812.029 931.147 821.275 C 920.279 830.522 911.607 839.838 905.131 849.225 C 901.244 854.037 897.936 857.639 895.201 860.029 C 892.49 862.447 889.971 863.787 887.643 864.045 Z M 887.643 864.045"/></svg>